<?xml version="1.0" standalone="no"?>
<!DOCTYPE svg PUBLIC "-//W3C//DTD SVG 20010904//EN"
 "http://www.w3.org/TR/2001/REC-SVG-20010904/DTD/svg10.dtd">
<svg version="1.0" xmlns="http://www.w3.org/2000/svg"
 width="267.000000pt" height="267.000000pt" viewBox="0 0 267.000000 267.000000"
 preserveAspectRatio="xMidYMid meet">
<metadata>
Created by potrace 1.14, written by Peter Selinger 2001-2017
</metadata>
<g transform="translate(0.000000,267.000000) scale(0.100000,-0.100000)"
fill="#05D7A0" stroke="none">
<path d="M33 2638 c-12 -6 -24 -20 -27 -32 -3 -11 -6 -587 -6 -1278 l0 -1257
26 -20 c26 -20 37 -21 409 -21 362 0 384 1 406 19 l24 19 5 309 c5 299 4 308
-15 324 -41 32 -214 147 -320 213 -244 151 -305 212 -305 304 0 91 58 156 220
247 122 68 206 108 304 144 l80 28 2 99 c1 55 5 164 8 244 4 80 9 195 11 255
3 61 7 167 10 237 6 127 6 128 -19 153 l-25 25 -383 -1 c-245 0 -391 -4 -405
-11z"/>
<path d="M1718 2633 c-8 -10 -25 -58 -38 -108 -105 -413 -293 -712 -513 -815
-78 -37 -87 -50 -34 -50 90 0 266 -74 346 -146 173 -155 224 -411 118 -592
-89 -152 -286 -190 -409 -80 -104 93 -103 274 1 327 133 68 253 -105 149 -216
-37 -39 0 -57 53 -26 65 39 90 158 51 244 -74 165 -287 200 -409 68 -65 -70
-91 -142 -91 -251 1 -109 38 -205 116 -296 140 -166 384 -218 571 -122 110 56
230 195 273 317 24 69 26 80 35 155 l6 57 -130 173 c-71 95 -135 183 -141 195
-19 34 -4 59 97 168 25 28 84 93 131 145 47 52 88 97 91 100 3 3 30 32 60 65
106 118 224 248 249 274 14 14 61 67 105 116 44 50 83 92 86 95 3 3 29 32 58
64 58 67 63 95 26 131 l-24 25 -409 0 c-377 0 -410 -1 -424 -17z"/>
<path d="M774 1394 c-23 -34 -9 -75 29 -88 38 -14 61 2 65 43 7 64 -61 96 -94
45z"/>
<path d="M2015 975 c3 -16 7 -41 10 -55 42 -221 52 -436 25 -590 -12 -69 -62
-232 -79 -255 -5 -5 -11 -18 -14 -27 -6 -17 14 -18 329 -18 l335 0 24 25 c14
13 25 35 25 49 0 18 -96 154 -317 448 -374 497 -346 462 -338 423z"/>
</g>
</svg>
