<?xml version="1.0" encoding="UTF-8"?>
<svg version="1.1" xmlns="http://www.w3.org/2000/svg" width="343" height="343">
<path d="M0 0 C0.78939028 0.00054477 1.57878056 0.00108953 2.39209175 0.00165081 C3.75063774 -0.00464092 3.75063774 -0.00464092 5.1366291 -0.01105976 C6.13303413 -0.00544025 7.12943916 0.00017925 8.15603828 0.00596905 C9.20329079 0.0040707 10.25054329 0.00217236 11.32953072 0.00021648 C14.80579199 -0.00350066 18.28184622 0.0072277 21.75808907 0.01842022 C24.16703453 0.01961178 26.57598047 0.02006523 28.98492622 0.01980877 C34.04069096 0.02137535 39.09638507 0.02967725 44.15213203 0.04307842 C50.63782281 0.06005029 57.12343574 0.06389335 63.60914612 0.06313324 C68.58647596 0.06340503 73.56378873 0.06888808 78.5411129 0.07613468 C80.93255802 0.07932077 83.32400507 0.08128862 85.71545219 0.08202839 C89.05766029 0.08419359 92.39978546 0.09294241 95.74197578 0.1036253 C97.23051064 0.10294552 97.23051064 0.10294552 98.7491169 0.10225201 C100.11612236 0.10864948 100.11612236 0.10864948 101.51074409 0.1151762 C102.30088842 0.11685205 103.09103275 0.11852789 103.90512085 0.12025452 C106.07840157 0.24888897 106.07840157 0.24888897 108.23888016 0.81974602 C110.15975126 1.47434919 110.15975126 1.47434919 112.07840157 0.24888897 C116.10867025 -0.03252452 120.14069201 -0.0648631 124.17996407 -0.10120869 C126.17513637 -0.12576317 128.1698312 -0.18235014 130.16433907 -0.23939228 C137.85700531 -0.30946718 143.20308859 0.04536937 149.07840157 5.24888897 C149.79512032 5.85990459 150.51183907 6.47092022 151.25027657 7.10045147 C155.87494434 12.29747911 158.11304742 17.60818925 160.07840157 24.24888897 C161.67168282 24.39584209 161.67168282 24.39584209 163.29715157 24.54576397 C178.04897874 26.04745742 178.04897874 26.04745742 184.07840157 30.24888897 C185.13027657 30.95013897 186.18215157 31.65138897 187.26590157 32.37388897 C191.90090585 36.43901568 195.04476689 43.21202264 196.07840157 49.24888897 C196.14672144 51.66467956 196.16327798 54.0822361 196.14090157 56.49888897 C196.13187813 57.76217022 196.12285469 59.02545147 196.11355782 60.32701397 C196.09615547 61.77334209 196.09615547 61.77334209 196.07840157 63.24888897 C197.19215157 63.33138897 198.30590157 63.41388897 199.45340157 63.49888897 C208.08962886 64.61274867 215.66611573 68.38909774 222.07840157 74.24888897 C223.75967723 77.61144029 223.21478153 81.41359305 223.20538521 85.11151409 C223.2069452 86.04074505 223.20850519 86.96997601 223.21011245 87.92736548 C223.21412074 91.06035334 223.21093342 94.19329327 223.2077961 97.32628155 C223.20915024 99.56474111 223.21093025 101.80320044 223.21310616 104.04165936 C223.21767971 110.13672911 223.21589103 116.23178202 223.21272707 122.32685208 C223.21020214 128.69602171 223.21254147 135.06518986 223.21411324 141.43435955 C223.21605177 152.82159657 223.21293547 164.208825 223.2078539 175.5960603 C223.20338916 185.92052589 223.20415918 196.24498023 223.20877266 206.56944561 C223.21412501 218.55305661 223.21611549 230.53666078 223.2131604 242.52027339 C223.21159982 248.86575127 223.2113978 255.21122141 223.21469688 261.5566988 C223.21758262 267.52460979 223.21558691 273.49249952 223.20980263 279.46040821 C223.20847863 281.65299984 223.20886305 283.84559325 223.21106529 286.03818417 C223.213791 289.02725136 223.21037809 292.0162501 223.20538521 295.00531292 C223.20761593 295.87652068 223.20984665 296.74772845 223.21214497 297.64533645 C223.19902406 301.68531801 222.8862169 305.28135046 222.07840157 309.24888897 C222.40840157 310.23888897 222.73840157 311.22888897 223.07840157 312.24888897 C223.35833774 315.66063523 223.35588822 319.07691788 223.39090157 322.49888897 C223.41990547 323.42830303 223.44890938 324.35771709 223.47879219 325.31529522 C223.54453237 332.4658036 222.17676507 336.23161856 217.79393977 341.91429406 C215.33593659 343.82648612 213.55396489 343.62148736 210.46182156 343.61803246 C209.2854275 343.6240056 208.10903344 343.62997875 206.89699107 343.6361329 C205.59837097 343.62739437 204.29975087 343.61865585 202.96177864 343.60965252 C201.57325475 343.61096007 200.18473158 343.61358555 198.79621238 343.61742002 C194.9719674 343.624147 191.14797316 343.61210214 187.32376015 343.59708583 C183.20311992 343.58416147 179.08249447 343.58851237 174.96183968 343.59079266 C167.81965266 343.59236768 160.67754769 343.58293463 153.53538132 343.56607914 C143.20895039 343.54172463 132.88255925 343.53388751 122.55610272 343.53011516 C105.80317787 343.5235451 89.05029678 343.5035689 72.29739571 343.47520733 C56.02103075 343.44768111 39.74467767 343.4264405 23.46829414 343.41368389 C22.4654518 343.41289572 21.46260946 343.41210755 20.42937795 343.4112955 C15.39854199 343.40738046 10.36770594 343.40358932 5.33686984 343.39985979 C-36.41598337 343.3687466 -78.1687884 343.31589571 -119.92159843 343.24888897 C-120.01313151 306.5341522 -120.08362574 269.8194326 -120.12585975 233.10460483 C-120.13086265 228.77118894 -120.13603993 224.43777328 -120.141325 220.10435772 C-120.14237424 219.24164391 -120.14342348 218.37893011 -120.14450452 217.49007346 C-120.16191507 203.51669499 -120.19345634 189.54338228 -120.23020962 175.57004283 C-120.26760095 161.23468065 -120.28983046 146.89935293 -120.29795241 132.56394398 C-120.30344395 123.71648343 -120.32079539 114.86920872 -120.3532643 106.02180536 C-120.37438989 99.95679206 -120.38080293 93.891875 -120.37560394 87.82682757 C-120.37303909 84.32629614 -120.3770016 80.8260897 -120.39842033 77.32561588 C-120.41825924 73.53080723 -120.41355877 69.73680007 -120.4026165 65.94197369 C-120.41426787 64.83496668 -120.42591923 63.72795967 -120.43792367 62.58740699 C-120.39008544 56.46873445 -119.9749479 52.92662543 -115.92159843 48.24888897 C-115.4382 47.66881084 -114.95480156 47.08873272 -114.45675468 46.49107647 C-106.05366542 38.68979996 -95.15763461 37.79074841 -84.23409843 38.01060772 C-81.36876129 38.21672277 -78.71472412 38.59821764 -75.92159843 39.24888897 C-75.88034843 38.15576397 -75.83909843 37.06263897 -75.79659843 35.93638897 C-74.68389692 26.98708962 -68.5600635 18.02989131 -61.70284843 12.44029522 C-53.49289874 6.34618132 -45.88896685 3.68569199 -35.67159843 3.81138897 C-34.85038506 3.81388653 -34.02917168 3.81638409 -33.18307304 3.81895733 C-26.77452073 3.959784 -21.48478692 5.14945353 -15.48800468 7.47154522 C-12.71481896 8.3115208 -11.55958469 8.37216054 -8.92159843 7.24888897 C-6.2757261 4.85303611 -6.2757261 4.85303611 -3.92159843 2.24888897 C-1.92159843 0.24888897 -1.92159843 0.24888897 0 0 Z " fill="#FEE6D0" transform="translate(119.92159843444824,-0.24888896942138672)"/>
<path d="M0 0 C0.78939028 0.00054477 1.57878056 0.00108953 2.39209175 0.00165081 C3.75063774 -0.00464092 3.75063774 -0.00464092 5.1366291 -0.01105976 C6.13303413 -0.00544025 7.12943916 0.00017925 8.15603828 0.00596905 C9.20329079 0.0040707 10.25054329 0.00217236 11.32953072 0.00021648 C14.80579199 -0.00350066 18.28184622 0.0072277 21.75808907 0.01842022 C24.16703453 0.01961178 26.57598047 0.02006523 28.98492622 0.01980877 C34.04069096 0.02137535 39.09638507 0.02967725 44.15213203 0.04307842 C50.63782281 0.06005029 57.12343574 0.06389335 63.60914612 0.06313324 C68.58647596 0.06340503 73.56378873 0.06888808 78.5411129 0.07613468 C80.93255802 0.07932077 83.32400507 0.08128862 85.71545219 0.08202839 C89.05766029 0.08419359 92.39978546 0.09294241 95.74197578 0.1036253 C97.23051064 0.10294552 97.23051064 0.10294552 98.7491169 0.10225201 C100.11612236 0.10864948 100.11612236 0.10864948 101.51074409 0.1151762 C102.30088842 0.11685205 103.09103275 0.11852789 103.90512085 0.12025452 C106.07840157 0.24888897 106.07840157 0.24888897 108.23888016 0.81974602 C110.15975126 1.47434919 110.15975126 1.47434919 112.07840157 0.24888897 C116.10867025 -0.03252452 120.14069201 -0.0648631 124.17996407 -0.10120869 C126.17513637 -0.12576317 128.1698312 -0.18235014 130.16433907 -0.23939228 C137.85700531 -0.30946718 143.20308859 0.04536937 149.07840157 5.24888897 C149.79512032 5.85990459 150.51183907 6.47092022 151.25027657 7.10045147 C155.87494434 12.29747911 158.11304742 17.60818925 160.07840157 24.24888897 C161.67168282 24.39584209 161.67168282 24.39584209 163.29715157 24.54576397 C178.04897874 26.04745742 178.04897874 26.04745742 184.07840157 30.24888897 C185.13027657 30.95013897 186.18215157 31.65138897 187.26590157 32.37388897 C191.90090585 36.43901568 195.04476689 43.21202264 196.07840157 49.24888897 C196.14672144 51.66467956 196.16327798 54.0822361 196.14090157 56.49888897 C196.13187813 57.76217022 196.12285469 59.02545147 196.11355782 60.32701397 C196.09615547 61.77334209 196.09615547 61.77334209 196.07840157 63.24888897 C197.19215157 63.33138897 198.30590157 63.41388897 199.45340157 63.49888897 C208.08962886 64.61274867 215.66611573 68.38909774 222.07840157 74.24888897 C223.63086382 77.35381347 223.21157121 80.63690623 223.19865608 84.04420757 C223.19993772 85.26571123 223.19993772 85.26571123 223.20124525 86.51189172 C223.20289967 89.2557891 223.19737928 91.99962608 223.19192696 94.74351788 C223.19164505 96.70437907 223.19180288 98.66524036 223.19236946 100.62610149 C223.1926573 105.96259891 223.1867627 111.29907402 223.1797955 116.63556623 C223.17355977 122.20763093 223.17295799 127.77969608 223.1717701 133.35176373 C223.16865743 143.90920193 223.16044491 154.46662982 223.15042061 165.02406347 C223.13925746 177.04080849 223.13374851 189.057554 223.12872517 201.07430291 C223.11826225 225.79917065 223.10066405 250.52402924 223.07840157 275.24888897 C221.75840157 275.24888897 220.43840157 275.24888897 219.07840157 275.24888897 C219.23566719 275.77095928 219.39293282 276.29302959 219.55496407 276.83092022 C221.3304925 285.03280155 221.1431839 293.14483008 216.56277657 300.28404522 C216.07293282 300.93244366 215.58308907 301.58084209 215.07840157 302.24888897 C214.15801094 303.48832256 214.15801094 303.48832256 213.21902657 304.75279522 C204.80524566 314.56375508 191.19766622 321.71013847 178.96512032 325.32701397 C175.98036876 326.21972877 175.98036876 326.21972877 172.87137032 327.69420147 C168.31173557 329.69711921 163.53787644 330.74048097 158.70340157 331.87388897 C156.90318051 332.30045757 155.10365648 332.72998242 153.30496407 333.16295147 C152.51686348 333.34809307 151.72876289 333.53323467 150.91678047 333.72398663 C149.07707019 334.08828826 149.07707019 334.08828826 148.07840157 335.24888897 C144.89230387 335.70025281 141.70670537 336.06397865 138.50808907 336.41099834 C134.82668392 336.8349804 131.30437523 337.40831551 127.70730782 338.30748272 C122.62462053 339.4878042 117.71100081 339.47298844 112.51590157 339.37388897 C111.60260078 339.36486553 110.6893 339.35584209 109.74832344 339.34654522 C107.52472838 339.3232615 105.30171479 339.29056607 103.07840157 339.24888897 C106.03425406 336.72386793 108.07537074 335.82946446 111.92996407 335.44029522 C112.86453438 335.3326585 113.79910469 335.22502178 114.76199532 335.11412334 C116.69934372 334.91472826 118.63684116 334.71677502 120.57449532 334.52037334 C126.43585202 333.84282938 131.41483927 332.60529464 136.82693672 330.23375225 C141.60010572 328.14581431 146.4343438 326.51311254 151.57840157 325.68638897 C152.40340157 325.54201397 153.22840157 325.39763897 154.07840157 325.24888897 C154.40840157 324.58888897 154.73840157 323.92888897 155.07840157 323.24888897 C157.51199532 322.17857647 157.51199532 322.17857647 160.51590157 321.12388897 C161.99896797 320.59408428 161.99896797 320.59408428 163.51199532 320.05357647 C166.07840157 319.24888897 166.07840157 319.24888897 168.07840157 319.24888897 C168.07840157 318.58888897 168.07840157 317.92888897 168.07840157 317.24888897 C169.84402657 316.05748272 169.84402657 316.05748272 172.32840157 314.68638897 C190.72984285 303.93703218 205.51801072 288.55184218 211.82840157 267.78013897 C214.92090658 253.86386641 214.94260516 236.36830846 207.66360664 223.80748272 C202.9291616 215.44063142 201.9063351 207.98714549 201.20324898 198.58977032 C200.88199017 194.36133673 200.4699787 190.14164896 200.06277657 185.92076397 C199.98343376 185.08493786 199.90409096 184.24911175 199.82234383 183.38795757 C197.97065416 164.43438017 194.86961433 141.22091902 185.98147774 124.14097881 C185.07840157 122.24888897 185.07840157 122.24888897 185.07840157 119.24888897 C186.71472049 118.19996658 188.38326019 117.19982193 190.07840157 116.24888897 C190.40840157 115.58888897 190.73840157 114.92888897 191.07840157 114.24888897 C190.23728828 114.73615459 190.23728828 114.73615459 189.37918282 115.23326397 C184.41517558 117.42450655 178.71214607 116.44606503 173.45340157 115.81138897 C168.39300723 113.46861381 165.54083521 109.51524399 162.07840157 105.24888897 C161.41840157 104.58888897 160.75840157 103.92888897 160.07840157 103.24888897 C159.85926094 104.02232647 159.64012032 104.79576397 159.41433907 105.59263897 C157.31131143 112.50014438 154.93422936 117.87510621 150.07840157 123.24888897 C149.58726875 123.80060772 149.09613594 124.35232647 148.59012032 124.92076397 C146.05501551 127.14798783 143.37344687 126.98315951 140.07840157 127.24888897 C139.39519844 127.34814678 138.71199532 127.44740459 138.00808907 127.54967022 C131.43724405 128.15023132 127.67263618 125.49082965 122.46121407 121.68248272 C121.67488594 121.20939678 120.88855782 120.73631084 120.07840157 120.24888897 C116.42022027 121.46828273 115.72315836 122.7523546 113.45340157 125.81138897 C109.44708823 130.94035055 105.22333376 135.26156652 100.07840157 139.24888897 C99.50090157 139.70521709 98.92340157 140.16154522 98.32840157 140.63170147 C91.14398694 145.21818045 80.45679418 144.1733002 72.32840157 142.77623272 C70.0999771 142.11168471 68.15280478 141.29801244 66.07840157 140.24888897 C65.26113594 139.84670147 64.44387032 139.44451397 63.60183907 139.03013897 C57.23275947 135.56659115 52.30909117 131.15767334 48.07840157 125.24888897 C48.07840157 124.58888897 48.07840157 123.92888897 48.07840157 123.24888897 C46.96465157 123.90888897 45.85090157 124.56888897 44.70340157 125.24888897 C41.32840157 127.24888897 41.32840157 127.24888897 39.07840157 127.24888897 C39.07840157 127.90888897 39.07840157 128.56888897 39.07840157 129.24888897 C37.53765348 129.87615005 35.99575233 130.50057907 34.45340157 131.12388897 C33.16562813 131.64595928 33.16562813 131.64595928 31.85183907 132.17857647 C30.93660469 132.53177959 30.02137032 132.88498272 29.07840157 133.24888897 C28.15543282 133.61240459 27.23246407 133.97592022 26.28152657 134.35045147 C17.53506761 136.80372654 6.8862826 136.68033016 -1.42159843 132.93638897 C-7.62796666 129.30951549 -15.36594846 122.97111579 -17.69112968 115.91295147 C-17.76718437 115.36381084 -17.84323906 114.81467022 -17.92159843 114.24888897 C-18.56097343 114.92951397 -19.20034843 115.61013897 -19.85909843 116.31138897 C-23.54157431 119.99386484 -27.61978855 123.31622094 -31.92159843 126.24888897 C-32.58159843 126.24888897 -33.24159843 126.24888897 -33.92159843 126.24888897 C-33.92159843 126.90888897 -33.92159843 127.56888897 -33.92159843 128.24888897 C-36.00378892 129.06431328 -38.08739604 129.87612086 -40.17159843 130.68638897 C-41.33175468 131.13884991 -42.49191093 131.59131084 -43.68722343 132.05748272 C-49.36153156 134.14765661 -54.16842282 134.43176403 -60.17159843 134.43638897 C-60.99273125 134.44863506 -61.81386406 134.46088116 -62.65987968 134.47349834 C-68.08469033 134.48639409 -72.71146491 133.76751084 -77.92159843 132.24888897 C-77.92159843 132.90888897 -77.92159843 133.56888897 -77.92159843 134.24888897 C-76.60159843 134.57888897 -75.28159843 134.90888897 -73.92159843 135.24888897 C-74.50859159 141.67913213 -75.26044026 148.07908407 -76.07784843 154.48326397 C-76.23930351 155.7512785 -76.23930351 155.7512785 -76.40402031 157.04490948 C-76.85512082 160.58100331 -77.30749748 164.11691944 -77.76486015 167.65220928 C-79.95489192 184.61317267 -81.10833907 201.28305707 -81.10690117 218.38975811 C-81.1090972 221.30974496 -81.12735065 224.22935866 -81.14620781 227.14927959 C-81.17594842 237.0759464 -80.86974971 246.48761594 -78.92159843 256.24888897 C-78.71277031 257.53408428 -78.50394218 258.81927959 -78.28878593 260.14342022 C-78.12636406 261.10634991 -77.96394218 262.06927959 -77.79659843 263.06138897 C-77.62902031 264.05783428 -77.46144218 265.05427959 -77.28878593 266.08092022 C-77.16761406 266.79634991 -77.04644218 267.51177959 -76.92159843 268.24888897 C-87.38056206 270.98565112 -87.38056206 270.98565112 -90.97237968 269.26842022 C-91.55374687 268.80822491 -92.13511406 268.34802959 -92.73409843 267.87388897 C-98.2895277 263.59958595 -105.26376512 264.59548591 -111.92159843 265.24888897 C-113.33932231 265.56580672 -114.75179838 265.90714208 -116.15792656 266.27208233 C-117.39993828 266.59442852 -118.64195 266.91677471 -119.92159843 267.24888897 C-120.01500229 239.580796 -120.08555835 211.91272662 -120.12884712 184.24450779 C-120.14948028 171.39793283 -120.17761543 158.55145578 -120.22335625 145.70494366 C-120.26320075 134.50910824 -120.28902576 123.31334373 -120.29795241 112.11743939 C-120.30317116 106.18820395 -120.31545308 100.25917136 -120.34451866 94.33000088 C-120.37164986 88.75027245 -120.38004797 83.17083064 -120.37402916 77.59104252 C-120.37513041 75.54237403 -120.38309779 73.49369605 -120.39842033 71.44508457 C-120.41831212 68.64861023 -120.41354042 65.85321901 -120.4026165 63.05671978 C-120.41426787 62.24542484 -120.42591923 61.4341299 -120.43792367 60.59825027 C-120.37332585 54.48326651 -118.38231719 51.20175147 -114.45675468 46.49107647 C-106.05366542 38.68979996 -95.15763461 37.79074841 -84.23409843 38.01060772 C-81.36876129 38.21672277 -78.71472412 38.59821764 -75.92159843 39.24888897 C-75.88034843 38.15576397 -75.83909843 37.06263897 -75.79659843 35.93638897 C-74.68389692 26.98708962 -68.5600635 18.02989131 -61.70284843 12.44029522 C-53.49289874 6.34618132 -45.88896685 3.68569199 -35.67159843 3.81138897 C-34.85038506 3.81388653 -34.02917168 3.81638409 -33.18307304 3.81895733 C-26.77452073 3.959784 -21.48478692 5.14945353 -15.48800468 7.47154522 C-12.71481896 8.3115208 -11.55958469 8.37216054 -8.92159843 7.24888897 C-6.2757261 4.85303611 -6.2757261 4.85303611 -3.92159843 2.24888897 C-1.92159843 0.24888897 -1.92159843 0.24888897 0 0 Z " fill="#FEFEFD" transform="translate(119.92159843444824,-0.24888896942138672)"/>
<path d="M0 0 C1.997359 1.91746464 3.88016112 3.85056411 5.61328125 6.01171875 C9.04908532 10.39305764 9.04908532 10.39305764 13.8125 13 C14.864375 13 15.91625 13 17 13 C17.81082031 13.02320312 18.62164062 13.04640625 19.45703125 13.0703125 C23.49656699 13.15311411 27.09779334 13.13289871 31 12 C30.25 13.9375 30.25 13.9375 29 16 C26.921875 16.62890625 26.921875 16.62890625 25 17 C25.54527344 18.31484375 25.54527344 18.31484375 26.1015625 19.65625 C29.42493231 27.93734236 32.0192748 36.28118219 34.1875 44.9375 C34.42484863 45.8759375 34.66219727 46.814375 34.90673828 47.78125 C37.77187903 59.55415536 39.87946467 71.3763874 40.921875 83.4453125 C40.99183182 84.23952103 41.06178864 85.03372955 41.13386536 85.852005 C41.41491682 89.08925608 41.69184443 92.32600002 41.92773438 95.56689453 C42.82346846 107.58466023 45.39759758 116.3151861 51 127 C56.7990678 141.5458099 55.40189727 159.67221751 49.40625 173.89453125 C41.14131511 192.24496791 27.21872995 205.03482952 10 215 C9.34 215 8.68 215 8 215 C8 215.66 8 216.32 8 217 C6.39850114 217.67305018 4.79368971 218.33822227 3.1875 219 C1.84751953 219.556875 1.84751953 219.556875 0.48046875 220.125 C-2 221 -2 221 -5 221 C-5.33 221.99 -5.66 222.98 -6 224 C-7.78515625 224.625 -7.78515625 224.625 -10.0625 225 C-15.89183129 226.11605868 -21.07895427 228.18610563 -26.53125 230.49609375 C-31.70219605 232.43018211 -36.98025521 232.99185888 -42.4375 233.625 C-44.41580491 233.86356403 -46.39370027 234.10555817 -48.37109375 234.3515625 C-49.23661865 234.45291504 -50.10214355 234.55426758 -50.99389648 234.65869141 C-52.99254438 234.79971426 -52.99254438 234.79971426 -54 236 C-43.84029206 236.33949519 -34.48835772 235.84088145 -24.5390625 233.7265625 C-21.62794931 233.12891675 -18.82914477 232.70426224 -15.875 232.4375 C-12.19835978 232.02239546 -9.48811373 231.18139328 -6 230 C-4.38144738 229.53532651 -2.76006394 229.08045567 -1.13671875 228.6328125 C0.19456055 228.26349609 0.19456055 228.26349609 1.55273438 227.88671875 C3.3796902 227.38246343 5.20780872 226.88240022 7.03710938 226.38671875 C12.26565945 224.92741265 17.14134885 223.18230697 22.0637207 220.89257812 C24.31205488 219.85615022 26.60665491 219.01906688 28.9375 218.1875 C34.5889055 215.95852951 39.14573387 212.59363041 44 209 C44.65097656 208.58878906 45.30195313 208.17757812 45.97265625 207.75390625 C52.16022006 203.8237833 56.08950486 197.65462675 59 191 C59.27178081 188.8784414 59.27178081 188.8784414 59.1953125 186.671875 C59.18886719 185.87265625 59.18242187 185.0734375 59.17578125 184.25 C59.15902344 183.425 59.14226562 182.6 59.125 181.75 C59.11146484 180.48929687 59.11146484 180.48929687 59.09765625 179.203125 C59.07415817 177.13529396 59.03828908 175.06761005 59 173 C60.32 173 61.64 173 63 173 C63.02481344 177.03848316 63.0429136 181.07693647 63.05493164 185.11547852 C63.05994454 186.48788222 63.06675658 187.86028062 63.07543945 189.23266602 C63.08763857 191.21107651 63.09272248 193.1895268 63.09765625 195.16796875 C63.10551147 196.95110474 63.10551147 196.95110474 63.11352539 198.77026367 C63 202 63 202 62.43139648 204.73950195 C61.779912 207.15383656 61.779912 207.15383656 63 210 C63.27993617 213.41174626 63.27748665 216.82802891 63.3125 220.25 C63.34150391 221.17941406 63.37050781 222.10882813 63.40039062 223.06640625 C63.4661308 230.21691463 62.0983635 233.9827296 57.7155382 239.66540509 C55.25753502 241.57759715 53.47556332 241.37259839 50.38341999 241.36914349 C49.20702593 241.37511663 48.03063187 241.38108978 46.81858951 241.38724393 C45.51996941 241.3785054 44.2213493 241.36976688 42.88337708 241.36076355 C41.49485319 241.3620711 40.10633002 241.36469658 38.71781081 241.36853105 C34.89356583 241.37525803 31.0695716 241.36321317 27.24535859 241.34819686 C23.12471836 241.3352725 19.0040929 241.3396234 14.88343811 241.34190369 C7.74125109 241.34347871 0.59914613 241.33404566 -6.54302025 241.31719017 C-16.86945117 241.29283566 -27.19584232 241.28499854 -37.52229885 241.2812262 C-54.27522369 241.27465613 -71.02810478 241.25467993 -87.78100586 241.22631836 C-104.05737082 241.19879214 -120.3337239 241.17755153 -136.61010742 241.16479492 C-137.61294977 241.16400675 -138.61579211 241.16321858 -139.64902361 241.16240653 C-144.67985958 241.15849149 -149.71069563 241.15470035 -154.74153173 241.15097082 C-196.49438493 241.11985763 -238.24718997 241.06700674 -280 241 C-280.04627591 231.12539212 -280.08184499 221.2508099 -280.10362434 211.3761158 C-280.11407566 206.79123234 -280.12825935 202.20642289 -280.15087891 197.62158203 C-280.17255936 193.19957626 -280.18455846 188.77764181 -280.18975449 184.35558701 C-280.19345889 182.66582999 -280.20069237 180.97607702 -280.21146011 179.28635025 C-280.22591143 176.92535111 -280.22798064 174.5646493 -280.22705078 172.20361328 C-280.23424133 171.50014771 -280.24143188 170.79668213 -280.24884033 170.07189941 C-280.22810432 165.22810432 -280.22810432 165.22810432 -278 163 C-271.18364698 161.46082351 -261.16669828 159.94107874 -254.66796875 163.15234375 C-253.45388533 164.07504715 -252.24773238 165.00830327 -251.05078125 165.953125 C-246.74864586 168.14926269 -241.59963559 166.77427199 -237 166 C-237.27714844 164.94941406 -237.55429688 163.89882813 -237.83984375 162.81640625 C-238.20605253 161.39852098 -238.57191954 159.9805474 -238.9375 158.5625 C-239.21110352 157.53092773 -239.21110352 157.53092773 -239.49023438 156.47851562 C-241.59620334 148.24609149 -242.15743271 140.0960188 -242.203125 131.62109375 C-242.21009399 130.74388168 -242.21706299 129.86666962 -242.22424316 128.96287537 C-242.24162646 126.12103453 -242.24797191 123.27939193 -242.25 120.4375 C-242.25100708 119.46113586 -242.25201416 118.48477173 -242.25305176 117.4788208 C-242.23463952 90.96681592 -239.42618668 65.14513613 -235 39 C-234.79632813 37.77539062 -234.59265625 36.55078125 -234.3828125 35.2890625 C-234.25648438 34.53367188 -234.13015625 33.77828125 -234 33 C-235.32 32.67 -236.64 32.34 -238 32 C-238 31.34 -238 30.68 -238 30 C-236.87335938 30.15984375 -235.74671875 30.3196875 -234.5859375 30.484375 C-223.32766297 31.88113409 -211.65327373 32.21606393 -201 28 C-199.62950186 27.58885056 -198.25473016 27.19151678 -196.875 26.8125 C-195.92625 26.544375 -194.9775 26.27625 -194 26 C-194 25.34 -194 24.68 -194 24 C-192.46140132 22.83430596 -190.86718037 21.7414716 -189.25 20.6875 C-185.44587086 18.11917552 -182.71850197 15.73794021 -180 12 C-179.34 12 -178.68 12 -178 12 C-177.07402133 13.37182026 -176.15441755 14.74833101 -175.265625 16.14453125 C-171.73277037 21.3238706 -167.73870093 26.27411706 -162 29 C-160.97003906 29.50917969 -159.94007813 30.01835937 -158.87890625 30.54296875 C-154.72190302 32.30561167 -150.9141313 32.53488284 -146.4375 32.5 C-145.65826172 32.49935547 -144.87902344 32.49871094 -144.07617188 32.49804688 C-137.32912286 32.32730523 -131.81642516 30.67351048 -125.625 28.09375 C-123 27 -123 27 -121 27 C-121 26.34 -121 25.68 -121 25 C-115.70588235 21 -115.70588235 21 -112 21 C-110.34375 22.94140625 -110.34375 22.94140625 -108.5 25.5625 C-102.38366184 33.48900441 -94.90501159 38.26416444 -85 40 C-76.87342976 40.91055606 -68.01989952 41.46651708 -61.04296875 36.67578125 C-60.36878906 36.12277344 -59.69460937 35.56976563 -59 35 C-58.17113281 34.33355469 -57.34226563 33.66710937 -56.48828125 32.98046875 C-50.88630604 28.19911173 -46.27376749 22.9861048 -42 17 C-38.71538054 18.21191132 -36.06907817 19.56490441 -33.25 21.625 C-28.73639274 24.51506868 -25.21201965 24.50894948 -20 24 C-18.80375 24 -17.6075 24 -16.375 24 C-11.28258862 22.49113737 -8.86560738 19.36256645 -6 15 C-4.40924315 11.73944249 -3.17945855 8.42657865 -2 5 C-1.34096892 3.33029935 -0.67633039 1.6627686 0 0 Z M2 12 C1.62488281 12.66386719 1.24976563 13.32773438 0.86328125 14.01171875 C-3.98155219 22.37119207 -7.70103642 27.00541851 -17 30 C-17 30.66 -17 31.32 -17 32 C-24.25905522 31.84819466 -29.58172073 30.68287757 -35.90625 27.05859375 C-38.05518551 25.77439748 -38.05518551 25.77439748 -41 26 C-42.75819232 27.99986109 -42.75819232 27.99986109 -44.5 30.5625 C-48.86979146 36.26503747 -53.80493804 39.50891127 -60 43 C-60.85207031 43.53753906 -61.70414063 44.07507813 -62.58203125 44.62890625 C-70.27243411 48.98970012 -83.04687006 48.14997143 -91.4375 45.875 C-99.48971098 42.94940892 -106.14995162 38.31534228 -112.11328125 32.22265625 C-114.0119948 30.70885947 -114.0119948 30.70885947 -116.73046875 31.30859375 C-117.47941406 31.53675781 -118.22835937 31.76492187 -119 32 C-119 32.66 -119 33.32 -119 34 C-119.94875 34.0825 -120.8975 34.165 -121.875 34.25 C-125.0551566 34.67108793 -127.38831284 35.64169743 -130.25 37.0625 C-139.14350192 40.78631292 -151.65765765 40.70694183 -160.6875 37.375 C-167.84775485 33.83845674 -173.53480121 28.73845873 -179 23 C-182.5256385 24.63630112 -185.6361203 26.73459322 -188.875 28.875 C-201.38137649 36.70187927 -213.62557322 37.5867113 -228 37 C-229.58561482 43.66368297 -230.66122811 50.26730653 -231.5 57.0625 C-231.62745605 58.07546143 -231.75491211 59.08842285 -231.88623047 60.13208008 C-232.14132791 62.16047471 -232.39510419 64.18903601 -232.64746094 66.21777344 C-232.94911728 68.59843526 -233.26821391 70.97518254 -233.6015625 73.3515625 C-237.6227713 102.82042102 -240.16213273 137.60837272 -230 166 C-228.35 166 -226.7 166 -225 166 C-225 166.66 -225 167.32 -225 168 C-222.08892446 171.6174712 -219.87167208 172.58856287 -215.3359375 173.2734375 C-213.66422485 173.54667847 -213.66422485 173.54667847 -211.95874023 173.82543945 C-210.77610596 174.00679443 -209.59347168 174.18814941 -208.375 174.375 C-198.25600395 176.06544529 -188.80688011 178.33032963 -179.18359375 181.86328125 C-176.24948458 183.11208773 -176.24948458 183.11208773 -174 183 C-174 183.66 -174 184.32 -174 185 C-172.50142065 186.1224537 -170.948761 187.17314372 -169.375 188.1875 C-160.26657021 194.45677184 -154.73810675 201.99230871 -152.59326172 213.10791016 C-151.87309179 217.72165703 -151.39551365 222.34828717 -151 227 C-148.98007005 227.4829607 -146.95900646 227.96118112 -144.9375 228.4375 C-143.81214844 228.70433594 -142.68679687 228.97117187 -141.52734375 229.24609375 C-112.9123132 235.36204159 -80.75803437 232.80542774 -52 229 C-51.03771484 228.8772168 -50.07542969 228.75443359 -49.08398438 228.62792969 C-39.62275824 227.39695295 -30.84030361 225.71800969 -22 222 C-21.01386719 221.64164063 -20.02773438 221.28328125 -19.01171875 220.9140625 C-11.86127649 218.31231428 -5.1194782 215.18794 1.61987305 211.67871094 C4.73038302 210.06981302 7.58396994 208.7567303 11 208 C11 207.34 11 206.68 11 206 C11.71671875 205.7525 12.4334375 205.505 13.171875 205.25 C28.28312296 198.57099538 39.3371081 182.46677359 45.38671875 167.58984375 C49.90892391 153.76935008 49.42307613 139.4996895 44 126 C43.54471924 125.26394531 43.08943848 124.52789062 42.62036133 123.76953125 C36.37336474 113.21896217 36.09641907 101.59491545 34.9375 89.625 C32.67220827 66.98563716 29.01080526 45.37780876 21 24 C20.70867187 23.20722656 20.41734375 22.41445312 20.1171875 21.59765625 C18.51523649 19.30675427 17.00211275 19.15973407 14.3125 18.5625 C9.25285719 17.24067749 6.05708621 15.26330847 2 12 Z " fill="#593020" transform="translate(280,102)"/>
<path d="M0 0 C15.97265638 0.24055205 35.5313373 5.92066236 48 16 C48.70769531 16.56460937 49.41539063 17.12921875 50.14453125 17.7109375 C56.72973636 23.61682672 60.4810489 31.70272797 61.203125 40.46484375 C61.30320365 45.74399244 61.10017483 49.51009163 58 54 C55.17125574 56.90519681 53.92594212 57.97031505 49.83203125 58.1015625 C48.89746094 58.06804687 47.96289062 58.03453125 47 58 C47.03480469 56.94941406 47.06960937 55.89882813 47.10546875 54.81640625 C47.28640145 46.90060049 47.174374 40.40687268 44 33 C44.05220703 34.59328125 44.05220703 34.59328125 44.10546875 36.21875 C44.42624182 50.28456603 44.42624182 50.28456603 41 57 C40 58 40 58 37.86766052 58.12025452 C36.92834183 58.11803391 35.98902313 58.11581329 35.02124023 58.11352539 C33.96021591 58.11344986 32.89919159 58.11337433 31.80601501 58.11329651 C30.07479149 58.10555458 30.07479149 58.10555458 28.30859375 58.09765625 C27.13361832 58.0962413 25.95864288 58.09482635 24.74806213 58.09336853 C20.97784936 58.08774992 17.20769496 58.07519426 13.4375 58.0625 C10.88867273 58.0574874 8.33984453 58.05292408 5.79101562 58.04882812 C-0.47267633 58.03777444 -6.73633399 58.02101821 -13 58 C-13 58.66 -13 59.32 -13 60 C-14.32 60 -15.64 60 -17 60 C-16.96519531 58.58847656 -16.96519531 58.58847656 -16.9296875 57.1484375 C-16.91164062 55.90320313 -16.89359375 54.65796875 -16.875 53.375 C-16.84019531 51.53035156 -16.84019531 51.53035156 -16.8046875 49.6484375 C-16.99761857 46.04448514 -17.78412418 43.37040778 -19 40 C-18.67024547 36.45513876 -18.01275953 35.0191393 -16 32 C-15.34 32 -14.68 32 -14 32 C-12.28113304 26.62854075 -12.04857656 22.52336504 -12.4375 16.875 C-12.57089256 10.63222813 -12.57089256 10.63222813 -10.109375 7.90625 C-7.6875 6.375 -7.6875 6.375 -5.26171875 5.2109375 C-2.8361532 4.17456523 -2.8361532 4.17456523 -1.76953125 1.7890625 C-1.18558594 1.19867188 -0.60164063 0.60828125 0 0 Z " fill="#604036" transform="translate(61,280)"/>
<path d="M0 0 C0.94875 0.763125 1.8975 1.52625 2.875 2.3125 C5.95386831 4.59036192 8.3820518 5.36770123 12.125 6.0625 C15.71088141 6.98630177 16.72539989 7.5690985 18.75 10.74609375 C20.49323936 14.87143009 22 18.48980146 22 23 C15.89493812 23.63594395 11.96564274 22.97731125 6.82421875 19.58203125 C4.55471879 17.61383535 2.81601877 15.38527852 1 13 C0.57589844 13.86882812 0.15179688 14.73765625 -0.28515625 15.6328125 C-4.22256243 23.36916662 -7.74657525 29.11061639 -15.5 33.375 C-24.47248103 35.61812026 -34.04399186 32.29740586 -42 28 C-42.78310547 29.051875 -42.78310547 29.051875 -43.58203125 30.125 C-51.35560187 40.14487386 -60.2790964 48.15311223 -73 51 C-85.6173589 52.36309417 -96.36816919 48.84776646 -106.40625 41.15625 C-109.425863 38.57426207 -111.78503891 36.32244164 -114 33 C-114.5775 33.144375 -115.155 33.28875 -115.75 33.4375 C-117.83333333 33.95833333 -119.91666667 34.47916667 -122 35 C-122 35.66 -122 36.32 -122 37 C-128.68661024 39.68714243 -134.78087378 41.70634063 -142 42 C-142.86367187 42.0515625 -143.72734375 42.103125 -144.6171875 42.15625 C-156.80518971 42.57057302 -165.1706676 39.25587701 -174.046875 31.125 C-177.53465347 27.77673267 -177.53465347 27.77673267 -179 26 C-179 25.34 -179 24.68 -179 24 C-179.77085937 24.5775 -180.54171875 25.155 -181.3359375 25.75 C-182.33882812 26.4925 -183.34171875 27.235 -184.375 28 C-185.37273437 28.7425 -186.37046875 29.485 -187.3984375 30.25 C-190 32 -190 32 -192 32 C-192 32.66 -192 33.32 -192 34 C-193.66464597 34.63036226 -195.33184776 35.25397593 -197 35.875 C-197.928125 36.22304687 -198.85625 36.57109375 -199.8125 36.9296875 C-206.87942024 39.30264846 -212.89909559 40.30419816 -220.3125 40.1875 C-221.50842773 40.1865332 -221.50842773 40.1865332 -222.72851562 40.18554688 C-226.06050698 40.16032575 -228.81966149 40.06011284 -232 39 C-231.85923685 37.0412957 -231.7122324 35.08303907 -231.5625 33.125 C-231.48128906 32.03445312 -231.40007812 30.94390625 -231.31640625 29.8203125 C-231 27 -231 27 -230 25 C-228.29457031 25.06960937 -228.29457031 25.06960937 -226.5546875 25.140625 C-212.10306103 25.55743835 -200.57469698 23.50900144 -188.61621094 14.99829102 C-185.32887952 12.67437074 -184.18171272 12 -180 12 C-178.28125 13.5390625 -178.28125 13.5390625 -176.5 15.625 C-170.61615096 21.86343128 -161.73784316 26.94069205 -153.0078125 27.2734375 C-143.57454772 27.54565374 -136.21692274 27.15396634 -127.56640625 23.09375 C-125 22 -125 22 -121 22 C-121 21.34 -121 20.68 -121 20 C-118.74609375 19.28125 -118.74609375 19.28125 -116 19 C-114.03515625 20.40625 -114.03515625 20.40625 -112.0625 22.5 C-102.88428547 31.27714969 -92.04484134 35.1766668 -79.5 35.1875 C-78.75363281 35.19974609 -78.00726563 35.21199219 -77.23828125 35.22460938 C-73.01157643 35.23583072 -69.84283974 34.94089372 -66 33 C-64.65421875 32.32324219 -64.65421875 32.32324219 -63.28125 31.6328125 C-54.44009871 26.83971644 -48.98378592 22.07035104 -43 14 C-40.04174948 14.63532897 -37.62788212 15.63217956 -34.9375 17 C-29.72953989 19.39566165 -24.67479055 19.7878583 -19 20 C-19 19.34 -19 18.68 -19 18 C-17.2675 17.5359375 -17.2675 17.5359375 -15.5 17.0625 C-8.8583901 14.58516771 -4.15191845 8.65255046 -1 2.4375 C-0.67 1.633125 -0.34 0.82875 0 0 Z " fill="#ECC5A3" transform="translate(282,114)"/>
<path d="M0 0 C0.86044922 1.08087891 0.86044922 1.08087891 1.73828125 2.18359375 C10.03662488 13.1191789 10.03662488 13.1191789 22 19 C25.69676056 19.27809612 29.30302165 19.24876864 33 19 C32 21 32 21 30.23828125 21.61328125 C23.8856472 22.71085677 16.87284132 22.71890802 11 20 C8.08985328 17.18561679 5.54834304 14.14002729 3 11 C2.01 10.01 2.01 10.01 1 9 C0.78085937 9.7734375 0.56171875 10.546875 0.3359375 11.34375 C-1.76709014 18.25125541 -4.1441722 23.62621724 -9 29 C-9.49113281 29.55171875 -9.98226562 30.1034375 -10.48828125 30.671875 C-13.02338606 32.89909886 -15.7049547 32.73427054 -19 33 C-20.02480469 33.14888672 -20.02480469 33.14888672 -21.0703125 33.30078125 C-27.64115752 33.90134235 -31.40576538 31.24194068 -36.6171875 27.43359375 C-37.40351563 26.96050781 -38.18984375 26.48742187 -39 26 C-42.65818129 27.21939376 -43.3552432 28.50346563 -45.625 31.5625 C-49.63131333 36.69146158 -53.85506781 41.01267755 -59 45 C-59.5775 45.45632812 -60.155 45.91265625 -60.75 46.3828125 C-67.93441463 50.96929148 -78.62160738 49.92441123 -86.75 48.52734375 C-88.97842447 47.86279574 -90.92559678 47.04912347 -93 46 C-93.81726563 45.5978125 -94.63453125 45.195625 -95.4765625 44.78125 C-101.84564209 41.31770219 -106.76931039 36.90878437 -111 31 C-111 30.34 -111 29.68 -111 29 C-112.11375 29.66 -113.2275 30.32 -114.375 31 C-117.75 33 -117.75 33 -120 33 C-120 33.66 -120 34.32 -120 35 C-121.54074808 35.62726108 -123.08264923 36.2516901 -124.625 36.875 C-125.48351562 37.22304687 -126.34203125 37.57109375 -127.2265625 37.9296875 C-128.14179688 38.28289062 -129.05703125 38.63609375 -130 39 C-130.92296875 39.36351562 -131.8459375 39.72703125 -132.796875 40.1015625 C-141.54333396 42.55483757 -152.19211897 42.43144119 -160.5 38.6875 C-166.70636822 35.06062652 -174.44435003 28.72222682 -176.76953125 21.6640625 C-176.84558594 21.11492187 -176.92164063 20.56578125 -177 20 C-177.9590625 21.0209375 -177.9590625 21.0209375 -178.9375 22.0625 C-182.61997587 25.74497587 -186.69819012 29.06733197 -191 32 C-191.66 32 -192.32 32 -193 32 C-193 32.66 -193 33.32 -193 34 C-195.08219049 34.81542431 -197.16579761 35.62723189 -199.25 36.4375 C-200.41015625 36.88996094 -201.5703125 37.34242188 -202.765625 37.80859375 C-208.51641862 39.92694164 -213.41405142 40.1829103 -219.5 40.1875 C-220.78197266 40.20586914 -220.78197266 40.20586914 -222.08984375 40.22460938 C-222.91613281 40.22654297 -223.74242187 40.22847656 -224.59375 40.23046875 C-225.34333984 40.23457764 -226.09292969 40.23868652 -226.86523438 40.24291992 C-229.27798857 39.96836704 -230.90459178 39.19750325 -233 38 C-231.94941406 37.96261719 -230.89882812 37.92523438 -229.81640625 37.88671875 C-211.84313196 37.11104811 -198.86281048 31.02302343 -186 18 C-184.8158597 16.66108618 -183.64673007 15.3085903 -182.5 13.9375 C-181.675 12.968125 -180.85 11.99875 -180 11 C-179.34 11 -178.68 11 -178 11 C-176.44921875 12.609375 -176.44921875 12.609375 -174.6875 14.75 C-167.86286505 23.03157948 -160.10300704 26.20813745 -149.49609375 27.390625 C-136.95199914 27.78306595 -127.00394625 24.13687709 -116.55859375 17.390625 C-114 16 -114 16 -110 16 C-107.80859375 18.1953125 -107.80859375 18.1953125 -105.4375 21.125 C-100.08472869 27.42892538 -93.33758487 32.54998524 -85 34 C-73.60842426 34.88014382 -65.6379304 34.21127073 -56.3828125 26.9453125 C-51.16988004 22.47487487 -46.82207775 17.70204282 -43 12 C-39.50672652 12.73381675 -36.90549985 14.15244557 -33.87890625 16.0625 C-28.25166873 18.87026924 -21.1027595 18.81634315 -15 18 C-7.21132751 14.53978648 -3.59580385 7.28879159 0 0 Z " fill="#E0DFDE" transform="translate(279,94)"/>
<path d="M0 0 C2.48728148 0.99571236 4.77666716 1.6100462 7.4296875 1.97265625 C7.7596875 1.64265625 8.0896875 1.31265625 8.4296875 0.97265625 C23.44091851 -1.43986302 23.44091851 -1.43986302 29.4296875 1.97265625 C29.4296875 4.16015625 29.4296875 4.16015625 28.4296875 6.97265625 C24.89409882 10.09477513 21.64028806 11.86456691 16.9296875 12.28515625 C16.1046875 12.18203125 15.2796875 12.07890625 14.4296875 11.97265625 C14.7184375 12.54113281 15.0071875 13.10960937 15.3046875 13.6953125 C18.08040031 19.46840963 19.67347701 23.87094591 17.734375 30.265625 C15.63992916 35.66014308 13.55372034 38.29418454 8.4296875 40.97265625 C8.6978125 41.63265625 8.9659375 42.29265625 9.2421875 42.97265625 C9.6340625 43.96265625 10.0259375 44.95265625 10.4296875 45.97265625 C10.82607422 46.87951172 10.82607422 46.87951172 11.23046875 47.8046875 C13.29061066 52.75488631 13.97546813 56.60581342 13.4296875 61.97265625 C12.41674805 63.68481445 12.41674805 63.68481445 10.4296875 64.97265625 C7.62979621 65.23424947 5.05740821 65.32169963 2.26171875 65.265625 C1.46690598 65.26138016 0.6720932 65.25713531 -0.14680481 65.25276184 C-2.68415271 65.23597555 -5.22070488 65.19832449 -7.7578125 65.16015625 C-9.47850415 65.1451093 -11.19920826 65.13142091 -12.91992188 65.11914062 C-17.13702512 65.08607232 -21.35353392 65.0342912 -25.5703125 64.97265625 C-25.68610905 56.67999503 -25.774977 48.38767091 -25.82937336 40.09440136 C-25.85547977 36.2435522 -25.89089481 32.39325567 -25.94750977 28.54272461 C-26.00179545 24.82740658 -26.03172518 21.11262039 -26.04469872 17.39693642 C-26.05394509 15.97866757 -26.07200162 14.56042819 -26.09896278 13.14238548 C-26.13519563 11.15795602 -26.13735437 9.17299255 -26.13793945 7.18823242 C-26.14904251 6.05794113 -26.16014557 4.92764984 -26.17158508 3.7631073 C-25.5703125 0.97265625 -25.5703125 0.97265625 -23.21452332 -0.87284851 C-15.1262027 -4.40430962 -7.83097972 -3.49016508 0 0 Z " fill="#FCFCFC" transform="translate(25.5703125,274.02734375)"/>
<path d="M0 0 C5.5668334 5.22288717 7.47447548 10.12419237 7.75 17.75 C7.49838421 25.23773888 5.64544652 30.48710154 0.8125 36.1875 C-1.6072688 38.19413754 -3.99027728 39.81436481 -6.75 41.3125 C-5.76 41.8075 -5.76 41.8075 -4.75 42.3125 C-4.75 42.9725 -4.75 43.6325 -4.75 44.3125 C-5.32105469 44.13074219 -5.89210937 43.94898438 -6.48046875 43.76171875 C-19.03234598 39.87043726 -31.81535857 37.49667298 -44.75 35.3125 C-44.42 34.6525 -44.09 33.9925 -43.75 33.3125 C-41.44 33.6425 -39.13 33.9725 -36.75 34.3125 C-37.7090625 32.9203125 -37.7090625 32.9203125 -38.6875 31.5 C-42.77967517 25.17572928 -42.31998942 18.64093544 -41.75 11.3125 C-40.11950052 5.14410438 -35.826141 0.06759611 -30.75 -3.6875 C-20.91344893 -8.37653388 -8.40964656 -6.53885654 0 0 Z " fill="#FCB5B6" transform="translate(103.75,238.6875)"/>
<path d="M0 0 C0.99 0.33 1.98 0.66 3 1 C2.38511719 1.68835938 2.38511719 1.68835938 1.7578125 2.390625 C1.21898437 3.00421875 0.68015625 3.6178125 0.125 4.25 C-0.40867187 4.85328125 -0.94234375 5.4565625 -1.4921875 6.078125 C-6.0229104 11.85303606 -5.83408677 17.88573049 -5 25 C-3.95120275 27.79930776 -2.72905802 30.22287783 -1.19140625 32.78125 C0.14751996 35.27472569 0.75202113 37.17924033 1 40 C0.22265625 42.17578125 0.22265625 42.17578125 -0.9375 44.3125 C-3.76928501 50.25138244 -3.86066764 54.94131939 -1.75 61.25 C-0.39744041 64.55050426 1.32909864 66.60539878 4 69 C4 69.66 4 70.32 4 71 C3.01 71 2.02 71 1 71 C5.46741474 93.05491781 5.46741474 93.05491781 18.75 110.125 C21.78137461 111.30386791 24.78098484 111.62857517 28 112 C28.33 111.34 28.66 110.68 29 110 C29.66 113.96 30.32 117.92 31 122 C20.20496482 124.57608794 20.20496482 124.57608794 16.94921875 123.01953125 C16.36785156 122.55933594 15.78648438 122.09914063 15.1875 121.625 C9.63207073 117.35069698 2.65783331 118.34659694 -4 119 C-5.41772387 119.31691775 -6.83019994 119.65825311 -8.23632812 120.02319336 C-9.47833984 120.34553955 -10.72035156 120.66788574 -12 121 C-12.11701087 107.18720394 -12.20474178 93.37448519 -12.25906086 79.56129456 C-12.28513381 73.1469705 -12.32049109 66.73297985 -12.37719727 60.31884766 C-12.43159722 54.12669608 -12.46143786 47.93486482 -12.47438622 41.74249268 C-12.4836116 39.3822119 -12.50162676 37.0219483 -12.52865028 34.6618042 C-12.56504513 31.35097625 -12.56994076 28.04146515 -12.56762695 24.73046875 C-12.58560333 23.75870193 -12.60357971 22.78693512 -12.62210083 21.78572083 C-12.56432388 14.12525942 -10.14991513 9.50347703 -5.0859375 3.87109375 C-4.52132813 3.39800781 -3.95671875 2.92492187 -3.375 2.4375 C-2.52035156 1.69306641 -2.52035156 1.69306641 -1.6484375 0.93359375 C-1.10445312 0.62550781 -0.56046875 0.31742188 0 0 Z " fill="#E2E1E1" transform="translate(12,146)"/>
<path d="M0 0 C0.495 1.98 0.495 1.98 1 4 C4.3 4 7.6 4 11 4 C11 5.98 11 7.96 11 10 C9.68 10 8.36 10 7 10 C7.15726562 10.52207031 7.31453125 11.04414063 7.4765625 11.58203125 C9.25209093 19.78391258 9.06478234 27.89594111 4.484375 35.03515625 C3.99453125 35.68355469 3.5046875 36.33195312 3 37 C2.38640625 37.82628906 1.7728125 38.65257812 1.140625 39.50390625 C-7.27315591 49.31486611 -20.88073534 56.4612495 -33.11328125 60.078125 C-36.0980328 60.9708398 -36.0980328 60.9708398 -39.20703125 62.4453125 C-43.76666599 64.44823024 -48.54052513 65.491592 -53.375 66.625 C-55.17522106 67.0515686 -56.97474508 67.48109345 -58.7734375 67.9140625 C-59.56153809 68.0992041 -60.34963867 68.2843457 -61.16162109 68.47509766 C-63.00133138 68.83939929 -63.00133138 68.83939929 -64 70 C-67.1860977 70.45136384 -70.3716962 70.81508968 -73.5703125 71.16210938 C-77.25171765 71.58609143 -80.77402634 72.15942654 -84.37109375 73.05859375 C-89.45378104 74.23891523 -94.36740075 74.22409947 -99.5625 74.125 C-100.47580078 74.11597656 -101.38910156 74.10695313 -102.33007812 74.09765625 C-104.55367319 74.07437253 -106.77668677 74.0416771 -109 74 C-106.04414751 71.47497896 -104.00303083 70.58057549 -100.1484375 70.19140625 C-99.21386719 70.08376953 -98.27929688 69.97613281 -97.31640625 69.86523438 C-95.37905784 69.66583929 -93.44156041 69.46788605 -91.50390625 69.27148438 C-85.64254955 68.59394041 -80.6635623 67.35640567 -75.25146484 64.98486328 C-70.47829585 62.89692534 -65.64405777 61.26422357 -60.5 60.4375 C-59.675 60.293125 -58.85 60.14875 -58 60 C-57.505 59.01 -57.505 59.01 -57 58 C-54.56640625 56.9296875 -54.56640625 56.9296875 -51.5625 55.875 C-50.57378906 55.52179688 -49.58507812 55.16859375 -48.56640625 54.8046875 C-46 54 -46 54 -44 54 C-44 53.34 -44 52.68 -44 52 C-42.234375 50.80859375 -42.234375 50.80859375 -39.75 49.4375 C-21.73934402 38.91642374 -8.41950383 24.68314652 -1 5 C-0.62788492 3.3415612 -0.28234663 1.67605766 0 0 Z " fill="#DFDEDD" transform="translate(332,265)"/>
<path d="M0 0 C0.99 0.33 1.98 0.66 3 1 C1.87926138 1.83905565 0.75325453 2.67107831 -0.375 3.5 C-1.00148438 3.9640625 -1.62796875 4.428125 -2.2734375 4.90625 C-4 6 -4 6 -6 6 C-6 6.66 -6 7.32 -6 8 C-6.97453125 8.41378906 -7.9490625 8.82757813 -8.953125 9.25390625 C-11.72669005 10.44207922 -14.48439207 11.66059759 -17.234375 12.90234375 C-24.55937283 16.20768266 -31.84156367 19.48909184 -39.4453125 22.11328125 C-41.49548724 22.82488624 -43.51120311 23.63541132 -45.51171875 24.4765625 C-51.06812193 26.56280772 -56.83356814 27.25329218 -62.6875 28.0625 C-64.49033447 28.31628418 -64.49033447 28.31628418 -66.32958984 28.57519531 C-69.88453089 29.06556459 -73.44145873 29.53655967 -77 30 C-77.91507324 30.12294434 -78.83014648 30.24588867 -79.77294922 30.37255859 C-103.97707137 33.529618 -145.59108256 38.20445872 -168 27 C-168 23.7 -168 20.4 -168 17 C-163.30274757 17.45457282 -158.739848 18.00899097 -154.125 19 C-145.19666142 20.85878999 -136.17301371 21.16077508 -127.078125 21.203125 C-126.06665405 21.20991272 -125.05518311 21.21670044 -124.01306152 21.22369385 C-120.75867592 21.24056918 -117.50442646 21.24688583 -114.25 21.25 C-113.14160767 21.25233643 -112.03321533 21.25467285 -110.89123535 21.25708008 C-93.67332882 21.27076631 -76.81201968 20.53707561 -59.73339844 18.27539062 C-56.80542301 17.98039632 -53.94082098 17.9544731 -51 18 C-51 17.34 -51 16.68 -51 16 C-50.04130005 15.80422363 -50.04130005 15.80422363 -49.06323242 15.60449219 C-46.10282865 14.99484813 -43.14522859 14.37248811 -40.1875 13.75 C-39.18267578 13.54503906 -38.17785156 13.34007812 -37.14257812 13.12890625 C-31.05451736 11.83690622 -25.31587887 10.18060989 -19.50878906 7.93701172 C-16.12057561 6.67154235 -12.67225828 5.68580545 -9.19140625 4.7109375 C-6.96652298 4.05504253 -6.96652298 4.05504253 -4.90234375 2.9140625 C-3 2 -3 2 0 2 C0 1.34 0 0.68 0 0 Z " fill="#EDC5A4" transform="translate(297,302)"/>
<path d="M0 0 C9.6981533 12.15088394 12.5034543 27.86137172 11 43 C10.27986685 46.27370875 9.34529628 48.91702937 8 52 C-0.21558294 52.625552 -6.45553427 52.36282609 -13 47 C-18.9546242 40.87561678 -22.04992867 34.06647929 -22.5 25.5625 C-22.21592361 17.33564776 -18.45382732 12.11668214 -12.6875 6.5 C-8.44091506 2.90892817 -5.51372891 2 0 2 C0 1.34 0 0.68 0 0 Z " fill="#FDB5B7" transform="translate(317,216)"/>
<path d="M0 0 C2.08326131 -0.02709444 4.16662441 -0.04643873 6.25 -0.0625 C7.41015625 -0.07410156 8.5703125 -0.08570313 9.765625 -0.09765625 C12.43229058 -0.01714098 14.45563382 0.35223705 17 1 C17.66 0.67 18.32 0.34 19 0 C23.03026869 -0.28141349 27.06229044 -0.31375207 31.1015625 -0.35009766 C33.0967348 -0.37465214 35.09142964 -0.43123911 37.0859375 -0.48828125 C44.77860374 -0.55835614 50.12468702 -0.2035196 56 5 C57.07507813 5.91652344 57.07507813 5.91652344 58.171875 6.8515625 C62.79654277 12.04859014 65.03464585 17.35930028 67 24 C68.59328125 24.14695312 68.59328125 24.14695312 70.21875 24.296875 C84.97057718 25.79856845 84.97057718 25.79856845 91 30 C92.051875 30.70125 93.10375 31.4025 94.1875 32.125 C98.82250429 36.19012671 101.96636533 42.96313367 103 49 C103.06831987 51.4157906 103.08487642 53.83334713 103.0625 56.25 C103.05347656 57.51328125 103.04445313 58.7765625 103.03515625 60.078125 C103.02355469 61.04234375 103.01195312 62.0065625 103 63 C104.11375 63.0825 105.2275 63.165 106.375 63.25 C115.0112273 64.3638597 122.58771417 68.14020877 129 74 C130.32229189 76.64458379 130.09677194 78.67761301 130.0625 81.625 C130.05347656 82.62789063 130.04445313 83.63078125 130.03515625 84.6640625 C130.01775391 85.82035156 130.01775391 85.82035156 130 87 C129.071875 85.9790625 129.071875 85.9790625 128.125 84.9375 C118.52967088 75.44998357 107.42638746 70.58248969 94 70 C94.165 68.906875 94.33 67.81375 94.5 66.6875 C95.59303113 57.43752017 95.83450966 49.29435044 91 41 C88.43190172 38.5404226 88.43190172 38.5404226 86 37 C86 36.34 86 35.68 86 35 C80.31014378 33.10080783 75.03847428 32.59313442 69.0625 32.375 C67.75055664 32.31699219 67.75055664 32.31699219 66.41210938 32.2578125 C64.27505369 32.1643893 62.13755706 32.08114602 60 32 C59.84144531 31.2265625 59.68289063 30.453125 59.51953125 29.65625 C57.50142486 20.64724467 55.33830945 14.00036992 47.625 8.5 C39.16613776 3.82035957 29.18039286 5.57403397 20 7 C20 7.66 20 8.32 20 9 C16.59987127 11.06436387 16.59987127 11.06436387 14.1796875 10.8046875 C11.25673835 9.72560591 9.27340244 8.04207694 6.875 6.0625 C6.00617188 5.35222656 5.13734375 4.64195312 4.2421875 3.91015625 C2 2 2 2 0 0 Z " fill="#502A1C" transform="translate(213,0)"/>
<path d="M0 0 C0.99773437 0.02320312 1.99546875 0.04640625 3.0234375 0.0703125 C4.02632813 0.08835938 5.02921875 0.10640625 6.0625 0.125 C6.83335938 0.14820312 7.60421875 0.17140625 8.3984375 0.1953125 C7.7075 0.87851563 7.0165625 1.56171875 6.3046875 2.265625 C4.24001891 4.32593162 2.23257324 6.43046272 0.2421875 8.5625 C-0.87220306 9.73195456 -1.98678904 10.90122293 -3.1015625 12.0703125 C-3.65714844 12.67617187 -4.21273437 13.28203125 -4.78515625 13.90625 C-6.32760407 15.50313715 -7.77583159 16.93156847 -9.6015625 18.1953125 C-12.23828125 18.17578125 -12.23828125 18.17578125 -14.6015625 17.1953125 C-15.34019531 16.94652344 -16.07882813 16.69773437 -16.83984375 16.44140625 C-18.76041667 15.69270833 -20.68098958 14.94401042 -22.6015625 14.1953125 C-22.6015625 13.5353125 -22.6015625 12.8753125 -22.6015625 12.1953125 C-31.5115625 12.1953125 -40.4215625 12.1953125 -49.6015625 12.1953125 C-49.9315625 13.1853125 -50.2615625 14.1753125 -50.6015625 15.1953125 C-52.93489583 15.86197917 -55.26822917 16.52864583 -57.6015625 17.1953125 C-58.0965625 18.6803125 -58.0965625 18.6803125 -58.6015625 20.1953125 C-59.2615625 20.1953125 -59.9215625 20.1953125 -60.6015625 20.1953125 C-60.88 20.77667969 -61.1584375 21.35804687 -61.4453125 21.95703125 C-62.54544882 24.08668703 -63.77126393 26.01642044 -65.1015625 28.0078125 C-68.90374292 34.05775253 -69.86614326 40.20882971 -70.6015625 47.1953125 C-71.7153125 47.0303125 -72.8290625 46.8653125 -73.9765625 46.6953125 C-91.4685779 44.68271022 -91.4685779 44.68271022 -107.6015625 50.1953125 C-112.24687613 54.31363677 -115.34270346 58.82708317 -115.82861328 65.1496582 C-115.81813965 66.21273193 -115.80766602 67.27580566 -115.796875 68.37109375 C-115.79042969 69.52802734 -115.78398438 70.68496094 -115.77734375 71.87695312 C-115.75220703 73.67422852 -115.75220703 73.67422852 -115.7265625 75.5078125 C-115.71302734 77.3340918 -115.71302734 77.3340918 -115.69921875 79.19726562 C-115.67569287 82.19681524 -115.64281903 85.19596294 -115.6015625 88.1953125 C-118.0765625 88.6903125 -118.0765625 88.6903125 -120.6015625 89.1953125 C-120.70081073 84.32069775 -120.77320831 79.44667753 -120.82128906 74.57128906 C-120.84134259 72.91460925 -120.86859279 71.25799968 -120.90332031 69.6015625 C-120.95211762 67.21336492 -120.97459314 64.82610703 -120.9921875 62.4375 C-121.01283264 61.70288544 -121.03347778 60.96827087 -121.05474854 60.21139526 C-121.05736486 54.14718229 -118.90121222 50.95489217 -115.13671875 46.4375 C-106.73362949 38.63622349 -95.83759867 37.73717194 -84.9140625 37.95703125 C-82.04872536 38.1631463 -79.39468819 38.54464117 -76.6015625 39.1953125 C-76.5603125 38.1021875 -76.5190625 37.0090625 -76.4765625 35.8828125 C-75.36386098 26.93351315 -69.24002757 17.97631484 -62.3828125 12.38671875 C-54.1728628 6.29260486 -46.56893092 3.63211552 -36.3515625 3.7578125 C-35.53034912 3.76031006 -34.70913574 3.76280762 -33.86303711 3.76538086 C-27.45448479 3.90620753 -22.16475099 5.09587706 -16.16796875 7.41796875 C-13.39478303 8.25794433 -12.23954876 8.31858407 -9.6015625 7.1953125 C-6.95569016 4.79945964 -6.95569016 4.79945964 -4.6015625 2.1953125 C-2.6015625 0.1953125 -2.6015625 0.1953125 0 0 Z " fill="#512B1C" transform="translate(120.6015625,-0.1953125)"/>
<path d="M0 0 C0.33 0 0.66 0 1 0 C1.49675513 13.43998601 1.85017614 23.43659185 -7.0625 34.25 C-14.20944155 41.76375478 -22.4529193 45.9976748 -32.78710938 46.34375 C-44.87652738 46.51447435 -54.08232988 43.82162854 -63.02734375 35.25 C-68.97659711 28.46431695 -73.32564001 20.81662037 -73.125 11.6875 C-73.10695313 10.61886719 -73.08890625 9.55023438 -73.0703125 8.44921875 C-73.04710938 7.64097656 -73.02390625 6.83273438 -73 6 C-70.79740264 8.81802897 -68.9976169 11.69526199 -67.25 14.8125 C-61.69633979 24.03239066 -56.37603403 27.97912933 -46 31 C-46 31.66 -46 32.32 -46 33 C-33.00851857 33.46214756 -22.38325333 32.55283673 -12.34375 23.5078125 C-7.84048899 18.70586581 -5.48670771 13.0227708 -3 7 C-2.39707652 5.60362923 -1.79312489 4.20770126 -1.1875 2.8125 C-0.795625 1.884375 -0.40375 0.95625 0 0 Z " fill="#593020" transform="translate(175,194)"/>
<path d="M0 0 C8.32358549 -0.35639662 13.21946879 1.36195706 19.453125 6.81640625 C22.13392963 11.34026405 22.41467161 15.04845512 21.453125 20.19140625 C19.16913762 23.53581634 17.31708244 24.44365493 13.453125 25.19140625 C9.664652 25.43852941 5.87385828 25.422522 2.078125 25.44140625 C1.04945313 25.46203125 0.02078125 25.48265625 -1.0390625 25.50390625 C-6.5903733 25.53252125 -10.82833183 25.4805536 -15.546875 22.19140625 C-18.02086968 18.48041423 -18.20829062 15.49469056 -17.546875 11.19140625 C-15.29270687 6.8500454 -12.66412234 3.83820811 -8.546875 1.19140625 C-5.67960051 0.37218497 -2.96311995 0.22268846 0 0 Z " fill="#5A2F1F" transform="translate(180.546875,283.80859375)"/>
<path d="M0 0 C4.15085911 4.15085911 3.30342529 9.87727669 3.3190918 15.3762207 C3.16953437 24.47992585 0.48073973 31.51926027 -6 38 C-6.66 38 -7.32 38 -8 38 C-8 38.66 -8 39.32 -8 40 C-16.14522739 44.11857999 -24.61520831 46.03686606 -33.546875 43.1875 C-43.00784609 38.4896385 -49.19893484 29.61834748 -53 20 C-54.30928769 15.06499254 -54.10153065 10.07653242 -54 5 C-51.30511127 7.38757685 -49.95672755 9.84817063 -48.375 13.0625 C-44.36820915 20.58647384 -38.87992087 28.24821678 -31 32 C-24.50708116 32.92280921 -17.48753082 32.94848547 -11.71484375 29.53125 C-3.24991419 21.97258853 -1.61184317 10.59701149 0 0 Z " fill="#5B3222" transform="translate(294,188)"/>
<path d="M0 0 C0.99 0.33 1.98 0.66 3 1 C2.38511719 1.68835938 2.38511719 1.68835938 1.7578125 2.390625 C1.21898437 3.00421875 0.68015625 3.6178125 0.125 4.25 C-0.40867187 4.85328125 -0.94234375 5.4565625 -1.4921875 6.078125 C-6.0229104 11.85303606 -5.83408677 17.88573049 -5 25 C-3.95120275 27.79930776 -2.72905802 30.22287783 -1.19140625 32.78125 C0.14751996 35.27472569 0.75202113 37.17924033 1 40 C0.22265625 42.17578125 0.22265625 42.17578125 -0.9375 44.3125 C-3.76421623 50.24075209 -3.89645174 54.91313709 -1.6875 61.1875 C-0.39566755 64.30635263 1.14472843 67.17291952 3 70 C0.69 69.67 -1.62 69.34 -4 69 C-4.49371094 69.7940625 -4.98742187 70.588125 -5.49609375 71.40625 C-6.13675781 72.4271875 -6.77742187 73.448125 -7.4375 74.5 C-8.07558594 75.5209375 -8.71367187 76.541875 -9.37109375 77.59375 C-9.90863281 78.3878125 -10.44617188 79.181875 -11 80 C-11.33 80 -11.66 80 -12 80 C-12.11619309 71.53292273 -12.20486534 63.06618227 -12.25906086 54.59850311 C-12.28508102 50.66596684 -12.32033773 46.73397869 -12.37719727 42.80175781 C-12.43179153 39.00212774 -12.46147748 35.20302262 -12.47438622 31.4030304 C-12.48357737 29.95819339 -12.50152556 28.51338297 -12.52865028 27.06877136 C-12.70471709 17.29722799 -11.69849799 11.22588041 -5.0859375 3.87109375 C-4.52132813 3.39800781 -3.95671875 2.92492187 -3.375 2.4375 C-2.52035156 1.69306641 -2.52035156 1.69306641 -1.6484375 0.93359375 C-1.10445312 0.62550781 -0.56046875 0.31742188 0 0 Z " fill="#5D3526" transform="translate(12,146)"/>
<path d="M0 0 C1.65 0 3.3 0 5 0 C5 3.85296387 4.90257334 5.98589586 2.29296875 8.91796875 C-0.42638536 11.28415999 -3.21486413 13.45925347 -6.18359375 15.50390625 C-8.729487 17.60084628 -9.16758192 19.87843219 -10 23 C-12.0245738 21.06745228 -13.42105792 19.36841312 -15 17 C-16.75227327 16.03207005 -16.75227327 16.03207005 -18.75 15.25 C-23.1845417 13.14602036 -26.52181414 10.28050284 -29 6 C-29 4.68 -29 3.36 -29 2 C-23.46275805 1.74830718 -23.46275805 1.74830718 -21.17578125 2.9921875 C-18.33260158 4.30913607 -16.0592018 4.26547312 -12.9375 4.25 C-11.37322266 4.25773438 -11.37322266 4.25773438 -9.77734375 4.265625 C-6.78871015 4.20072577 -6.78871015 4.20072577 -4 2 C-2.68 2 -1.36 2 0 2 C0 1.34 0 0.68 0 0 Z " fill="#5A3221" transform="translate(226,221)"/>
<path d="M0 0 C2.62404613 3.93606919 2.36302306 7.42590939 2 12 C0.9909668 13.7277832 0.9909668 13.7277832 -1 15 C-3.79989129 15.26159322 -6.37227929 15.34904338 -9.16796875 15.29296875 C-9.96278152 15.28872391 -10.7575943 15.28447906 -11.57649231 15.28010559 C-14.11384021 15.2633193 -16.65039238 15.22566824 -19.1875 15.1875 C-20.90819165 15.17245305 -22.62889576 15.15876466 -24.34960938 15.14648438 C-28.56671262 15.11341607 -32.78322142 15.06163495 -37 15 C-37 11.7 -37 8.4 -37 5 C-35.0509375 5.2475 -35.0509375 5.2475 -33.0625 5.5 C-16.64025296 7.13412629 -16.64025296 7.13412629 -1 3 C-0.67 2.01 -0.34 1.02 0 0 Z " fill="#DFDDDC" transform="translate(37,324)"/>
<path d="M0 0 C0.66 0.33 1.32 0.66 2 1 C3.95429154 6.86287461 4.02197789 14.2329736 1.8125 20.0625 C-0.20811487 23.33728962 -1.43481789 24.5905094 -5 26 C-6.99956075 26.04191434 -9.0005496 26.04688366 -11 26 C-12.68699552 11.15784753 -12.68699552 11.15784753 -8.55078125 5.8671875 C-5.79085425 3.66914065 -3.06370324 1.74571402 0 0 Z " fill="#5C3C32" transform="translate(333,312)"/>
<path d="M0 0 C-0.08768248 1.5843317 -0.19587329 3.16753567 -0.3125 4.75 C-0.39951172 6.07257813 -0.39951172 6.07257813 -0.48828125 7.421875 C-1.10513313 10.52967837 -1.71810526 11.78992124 -4 14 C-6.57797437 14.35711867 -8.72314113 14.46813593 -11.29296875 14.390625 C-12.35201164 14.38213531 -12.35201164 14.38213531 -13.43244934 14.37347412 C-15.68482626 14.35110411 -17.93560503 14.30091199 -20.1875 14.25 C-21.71547179 14.22993556 -23.24346856 14.21168468 -24.77148438 14.1953125 C-28.51493756 14.15123802 -32.25719795 14.08221074 -36 14 C-33.34078273 11.34078273 -30.39655627 10.81349884 -26.875 9.8125 C-20.01460025 7.78395483 -13.55136357 5.2222078 -7.05419922 2.2355957 C-2.17371706 0 -2.17371706 0 0 0 Z " fill="#58382F" transform="translate(319,324)"/>
<path d="M0 0 C3.16985882 1.41978124 6.08765406 3.11236837 9 5 C9 5.66 9 6.32 9 7 C1.41 7 -6.18 7 -14 7 C-14 5.68 -14 4.36 -14 3 C-9.40712806 0.24427683 -5.30461908 -1.07048169 0 0 Z " fill="#F58988" transform="translate(184,296)"/>
<path d="M0 0 C0.33 0 0.66 0 1 0 C1 5.61 1 11.22 1 17 C-2.465 15.02 -2.465 15.02 -6 13 C-6 8.64590465 -5.45344027 7.69295398 -3.0625 4.25 C-2.51722656 3.45078125 -1.97195313 2.6515625 -1.41015625 1.828125 C-0.94480469 1.22484375 -0.47945313 0.6215625 0 0 Z " fill="#623C2E" transform="translate(342,142)"/>
<path d="M0 0 C1 3 1 3 0 6 C-0.04681339 7.43543713 -0.03845789 8.87313902 0.0078125 10.30859375 C0.03294922 11.55286133 0.03294922 11.55286133 0.05859375 12.82226562 C0.10277095 14.56206769 0.15482195 16.3016881 0.21484375 18.04101562 C0.22902344 18.87181641 0.24320312 19.70261719 0.2578125 20.55859375 C0.2798877 21.31454834 0.30196289 22.07050293 0.32470703 22.84936523 C-0.0854411 25.56590278 -1.22945496 26.94485106 -3 29 C-3.08674429 24.54178834 -3.14030513 20.08379196 -3.1875 15.625 C-3.21263672 14.35398438 -3.23777344 13.08296875 -3.26367188 11.7734375 C-3.27333984 10.56171875 -3.28300781 9.35 -3.29296875 8.1015625 C-3.3086792 6.98088379 -3.32438965 5.86020508 -3.34057617 4.70556641 C-3.22818604 3.81272949 -3.1157959 2.91989258 -3 2 C-2.01 1.34 -1.02 0.68 0 0 Z " fill="#E59B90" transform="translate(3,185)"/>
<path d="M0 0 C0.66 0 1.32 0 2 0 C2.83371359 2.95508447 3.17889534 5.70109613 3.31640625 8.765625 C3.35830078 9.65507812 3.40019531 10.54453125 3.44335938 11.4609375 C3.48267578 12.38132812 3.52199219 13.30171875 3.5625 14.25 C3.60568359 15.18585938 3.64886719 16.12171875 3.69335938 17.0859375 C3.7991805 19.39048641 3.90126557 21.69513839 4 24 C3.34 24 2.68 24 2 24 C1.92652344 22.69675781 1.92652344 22.69675781 1.8515625 21.3671875 C1.77679688 20.21476562 1.70203125 19.06234375 1.625 17.875 C1.55539063 16.73804688 1.48578125 15.60109375 1.4140625 14.4296875 C1.00529518 11.04386011 0.0958743 8.21456462 -1 5 C-0.625 2.125 -0.625 2.125 0 0 Z " fill="#98735F" transform="translate(43,315)"/>
<path d="M0 0 C1.32 0 2.64 0 4 0 C4 0.66 4 1.32 4 2 C2.60493493 2.91870139 1.20662382 3.83282586 -0.20703125 4.72265625 C-3.50963683 7.0754929 -6.20709865 10.07753106 -9 13 C-9.66 13.66 -10.32 14.32 -11 15 C-11.33 13.35 -11.66 11.7 -12 10 C-11.38511719 9.61328125 -10.77023438 9.2265625 -10.13671875 8.828125 C-9.32847656 8.30734375 -8.52023438 7.7865625 -7.6875 7.25 C-6.88699219 6.73953125 -6.08648437 6.2290625 -5.26171875 5.703125 C-2.91258791 4.11684868 -2.91258791 4.11684868 -1.45703125 1.796875 C-0.73580078 0.90742188 -0.73580078 0.90742188 0 0 Z " fill="#B29482" transform="translate(61,280)"/>
<path d="M0 0 C-0.99 0.33 -1.98 0.66 -3 1 C-0.36 1.33 2.28 1.66 5 2 C5 2.33 5 2.66 5 3 C-1.6 3 -8.2 3 -15 3 C-10.25671786 -0.5574616 -5.78930597 -2.08415015 0 0 Z " fill="#A08D86" transform="translate(238,336)"/>
<path d="M0 0 C5.21979128 -0.1799928 9.07262981 0.02905192 14 2 C14 2.33 14 2.66 14 3 C9.38 3 4.76 3 0 3 C0 2.01 0 1.02 0 0 Z " fill="#B7AAA5" transform="translate(125,336)"/>
<path d="M0 0 C0 0.33 0 0.66 0 1 C3.3 1.33 6.6 1.66 10 2 C10 2.33 10 2.66 10 3 C3.07 3 -3.86 3 -11 3 C-10.67 2.34 -10.34 1.68 -10 1 C-6.6322481 0.06451336 -3.4815554 -0.09947301 0 0 Z " fill="#6C493C" transform="translate(226,337)"/>
<path d="M0 0 C0 0.33 0 0.66 0 1 C-0.69867188 1.10957031 -1.39734375 1.21914063 -2.1171875 1.33203125 C-3.02726563 1.49058594 -3.93734375 1.64914062 -4.875 1.8125 C-5.77992188 1.96332031 -6.68484375 2.11414063 -7.6171875 2.26953125 C-10.34412478 2.83051301 -10.34412478 2.83051301 -12 6 C-10.02 6 -8.04 6 -6 6 C-6 6.33 -6 6.66 -6 7 C-8.64 7 -11.28 7 -14 7 C-14 5.68 -14 4.36 -14 3 C-8.99067246 -0.00559652 -5.67276511 -0.29341888 0 0 Z " fill="#B5625B" transform="translate(184,296)"/>
<path d="M0 0 C0.33 0.66 0.66 1.32 1 2 C2.91697937 1.85833643 4.83357723 1.71150416 6.75 1.5625 C7.81734375 1.48128906 8.8846875 1.40007812 9.984375 1.31640625 C12.90413646 1.11718479 12.90413646 1.11718479 15.203125 0.27734375 C15.79609375 0.18582031 16.3890625 0.09429687 17 0 C17.99 0.99 18.98 1.98 20 3 C13.4 3 6.8 3 0 3 C0 2.01 0 1.02 0 0 Z " fill="#6C4A3D" transform="translate(124,337)"/>
<path d="M0 0 C1 3 1 3 0 6 C-0.22179785 7.89212737 -0.40614015 9.78884472 -0.5625 11.6875 C-0.68818359 13.17830078 -0.68818359 13.17830078 -0.81640625 14.69921875 C-0.87699219 15.45847656 -0.93757812 16.21773437 -1 17 C-1.33 17 -1.66 17 -2 17 C-2.33 12.05 -2.66 7.1 -3 2 C-2.01 1.34 -1.02 0.68 0 0 Z " fill="#E08083" transform="translate(3,185)"/>
<path d="M0 0 C0.99 0.33 1.98 0.66 3 1 C-0.27681643 3.75550472 -3.54173703 6.47280783 -7 9 C-7.66 8.67 -8.32 8.34 -9 8 C-7.87811441 6.85111717 -6.75238316 5.70598863 -5.625 4.5625 C-4.99851562 3.92441406 -4.37203125 3.28632813 -3.7265625 2.62890625 C-2 1 -2 1 0 0 Z " fill="#735144" transform="translate(12,146)"/>
<path d="M0 0 C-1.75 3.875 -1.75 3.875 -4 5 C-4 4.34 -4 3.68 -4 3 C-4.84304688 3.02320312 -5.68609375 3.04640625 -6.5546875 3.0703125 C-8.19824219 3.09738281 -8.19824219 3.09738281 -9.875 3.125 C-10.96554687 3.14820312 -12.05609375 3.17140625 -13.1796875 3.1953125 C-16 3 -16 3 -18 1 C-16.51886719 1.01740234 -16.51886719 1.01740234 -15.0078125 1.03515625 C-13.72648437 1.04417969 -12.44515625 1.05320312 -11.125 1.0625 C-9.21074219 1.07990234 -9.21074219 1.07990234 -7.2578125 1.09765625 C-4.40918752 1.01226581 -2.70028927 0 0 0 Z " fill="#917970" transform="translate(311,114)"/>
<path d="M0 0 C0.99 0.33 1.98 0.66 3 1 C1.87926138 1.83905565 0.75325453 2.67107831 -0.375 3.5 C-1.00148438 3.9640625 -1.62796875 4.428125 -2.2734375 4.90625 C-4 6 -4 6 -6 6 C-6 6.66 -6 7.32 -6 8 C-6.66 7.67 -7.32 7.34 -8 7 C-7 4 -7 4 -5.125 2.8125 C-3 2 -3 2 0 2 C0 1.34 0 0.68 0 0 Z " fill="#D8B192" transform="translate(297,302)"/>
<path d="M0 0 C0.66 0 1.32 0 2 0 C2 3.3 2 6.6 2 10 C-0.13262124 6.80106814 -0.59021548 4.77001757 -1 1 C-0.67 0.67 -0.34 0.34 0 0 Z " fill="#F2D9C4" transform="translate(43,315)"/>
<path d="M0 0 C1.32 0 2.64 0 4 0 C2.84826645 2.46800047 1.95216435 4.04783565 0 6 C-0.38218767 4.34385343 -0.71395102 2.67542976 -1 1 C-0.67 0.67 -0.34 0.34 0 0 Z " fill="#E1C6B2" transform="translate(50,289)"/>
<path d="M0 0 C0.66 0 1.32 0 2 0 C1.25 5.75 1.25 5.75 -1 8 C-1.04241723 5.66705225 -1.04092937 3.33297433 -1 1 C-0.67 0.67 -0.34 0.34 0 0 Z " fill="#F3D5BB" transform="translate(1,206)"/>
</svg>
